PathFileType	3	(X/Y/Z)	D:\Jess\PFP\Labelled\PA03\20250519\SRRun01.trc
DataRate	CameraRate	NumFrames	NumMarkers	Units	OrigDataRate	OrigDataStartFrame	OrigNumFrames
250.0	250.0	4	33	mm	250.0	36563	2501
Frame#	Time	C7			T10			CLAV			LSHO			RSHO			LASIS			RASIS			LPSIS			RPSIS			LILCR			RILCR			LGTR			LTHI			LLTHI			LLEP			LPSH			LLSH			LDSH			LLMAL			LTOE			L5TH			LHEE			RGTR			RTHI			RLTHI			RLEP			RPSH			RLSH			RDSH			RLMAL			RTOE			R5TH			RHEE			
		X1	Y1	Z1	X2	Y2	Z2	X3	Y3	Z3	X4	Y4	Z4	X5	Y5	Z5	X6	Y6	Z6	X7	Y7	Z7	X8	Y8	Z8	X9	Y9	Z9	X10	Y10	Z10	X11	Y11	Z11	X12	Y12	Z12	X13	Y13	Z13	X14	Y14	Z14	X15	Y15	Z15	X16	Y16	Z16	X17	Y17	Z17	X18	Y18	Z18	X19	Y19	Z19	X20	Y20	Z20	X21	Y21	Z21	X22	Y22	Z22	X23	Y23	Z23	X24	Y24	Z24	X25	Y25	Z25	X26	Y26	Z26	X27	Y27	Z27	X28	Y28	Z28	X29	Y29	Z29	X30	Y30	Z30	X31	Y31	Z31	X32	Y32	Z32	X33	Y33	Z33	

1564	146.248	572.4356259439281	1487.445812649559	-248.9076724751111	453.6839583844162	1271.154197388632	-238.2278936199864	687.0339230190755	1368.754990873591	-239.0973065335624	620.6349953481641	1431.496257159532	-405.157638159902	605.6026899421278	1449.150040501351	-92.00493762944411	600.8293475561752	973.6847990060032	-359.2600261397044	603.2952514082195	965.5633693840562	-101.4951884158169	428.5565151724408	1032.727445502918	-240.0849552845508	427.0879271750169	1029.203710207219	-199.7878757143936	532.7249168420035	1046.705648713091	-391.4314291674253	538.6822508192362	1046.837225015825	-65.82091212140237	504.3632905675772	903.3377029372393	-404.4685885411695	607.8361114674345	697.8830320525019	-328.6541496102656	485.5476405446427	621.8289795437428	-376.9279453181907	452.624284114606	471.7668617268673	-349.3498947811045	476.5148878260349	374.6034462400698	-299.5846288785966	346.5667387317473	305.9562309177145	-345.8161144320479	348.6484574405387	204.1368604094818	-278.9688223860287	237.9188209890462	144.0811308657806	-307.2791366628188	369.9019061213524	58.19464220606447	-298.9707270343067	331.6345228407338	34.04931244695169	-340.6428465724529	170.4377716960059	121.4461162742106	-258.4035688764637	557.5503747886974	875.0934986823281	-51.40463672176082	716.0689423135179	761.6743384361349	-145.6047951055996	676.6296573700239	655.0396731815051	-65.12242875739007	728.8802795998737	529.8472541719591	-95.7470260043751	702.2855785999127	432.8786459573386	-153.4461340632701	570.7803739157451	403.7364885337677	-85.66299115763113	521.2815038925328	320.5322564176735	-145.0954817416035	407.5391043399175	295.9440363117419	-100.0773048043568	419.5052700250905	141.356369631713	-128.3351176454745	386.9735083887046	158.0264426406588	-86.40178923072733	350.5126112385555	345.5110855577842	-141.1014972836504	
1565	146.252	572.7599724666695	1489.933694503883	-248.6496207248864	454.37517818694	1273.473531461449	-239.5767626151251	687.5239900572086	1371.575060717166	-237.4885471509574	622.7796734956569	1434.340561298138	-404.2870352883045	604.2355890759167	1451.820484070752	-91.4888669001613	601.2249292956752	974.8657136398776	-359.6473848162295	603.3200070481681	968.6467244019542	-101.9653460797688	429.0941393431254	1035.376537495124	-240.5817202539411	427.3924138809983	1032.066742636292	-200.2793553811872	534.1626873144858	1048.427438966664	-391.6795543976939	538.863371751874	1050.064888545794	-66.26992989746275	503.5886487126674	905.0775165704559	-404.1387888674682	604.1249656730351	698.3764321853955	-328.1964177199391	480.5868670073251	624.0210925643519	-376.413099128962	444.970298439618	474.6199042814221	-348.9023606336444	468.1928606582472	377.019180433839	-299.3558232327944	337.8993014306452	309.2638849889679	-345.6178876696732	339.8320239851512	206.7739970516643	-279.4631364461557	228.713717257357	147.3335693115272	-307.6391663271004	359.0705464624289	57.8570216768149	-299.2109366751039	320.2793490379606	34.23110207858088	-340.6358789686568	161.3731135450305	125.7501514425963	-258.7123451723139	558.1677614298885	878.9436404310117	-51.00112022167939	716.908134749793	767.4250127801365	-145.3574570380171	678.79877201701	660.1349102855777	-64.96936259125179	732.089164270118	535.3641687360977	-95.98442609633821	708.5006494025523	436.9248832807074	-153.0922841246808	577.328755319591	403.5268068015767	-86.21881167210911	531.7209374023636	317.8796801978092	-145.2393263529338	418.4374315653558	289.2780534960588	-101.0678897835164	437.798046207655	135.08043518935	-127.7379347003657	404.0818290779758	150.5750743683561	-86.26580651449029	359.4941377163964	335.8880968367532	-143.0101591737665	
1566	146.256	573.1261267012179	1492.483370661603	-248.3578749934435	455.1420751768559	1275.857735512536	-240.9219986144369	688.0266873540448	1374.44012816047	-235.8761449240995	624.9517623392321	1437.273510893986	-403.3707879797032	602.9475533262139	1454.515401934349	-90.98524215939521	601.7023275051276	976.1492307076685	-360.0160432942484	603.4367030050071	971.8492664825179	-102.4747333062959	429.7423233376344	1038.099296220198	-241.0355164768315	427.8007055846469	1035.017270475348	-200.7268319681846	535.6446529275609	1050.214461187384	-391.8968636588061	539.1801999372135	1053.438391023958	-66.7371743198119	502.8710147675213	906.9034518877688	-403.7728804874395	600.5426084485441	699.0023652817075	-327.7562154602688	475.819668720662	626.3455015211766	-375.9095287682421	437.4785731168759	477.6546728679526	-348.4621369690337	460.0302576100586	379.6192313843381	-299.1489503207185	329.4023627708451	312.7459926030996	-345.4319186492844	331.2701611988472	209.5497324093911	-280.0497785577705	219.7806362192662	150.6944413618375	-308.0555535102077	348.3467632448338	57.51927988803028	-299.4800628360491	309.0022061935638	34.44397178518533	-340.6401140014352	152.6000565389449	130.2527489749809	-259.0805518105543	558.9189239542624	882.9347481912457	-50.59994831019632	717.6603485040145	773.1556836079163	-145.2007558150731	680.8064235586427	665.2306104694179	-64.86432440409732	734.8889246893987	540.7223666357449	-96.23557676105479	714.4141270963536	440.8915798715456	-152.7244363580767	583.7679653675455	403.1346634839981	-86.77540614245201	542.2157301002665	315.1686361971588	-145.3728205857006	429.5732771113243	282.4933874153979	-102.0598103933155	456.2874568853565	128.9954245543416	-127.0550665278322	421.4198268916739	143.2890405021736	-86.05648909418224	368.8908657578451	326.060903217044	-144.9640975834792	
1567	146.26	573.5312313363557	1495.079001236589	-248.0316436215904	455.9820297965281	1278.294671364564	-242.2611807361878	688.5387201095823	1377.335299068715	-234.2643621017733	627.1466965810117	1440.280669317743	-402.4065989484783	601.7417437728983	1457.220685254094	-90.49347657840161	602.2655655396997	977.5277873374038	-360.3532059887651	603.6367669916334	975.1592223734374	-103.0145168930293	430.4993046000156	1040.88480109692	-241.4529660326503	428.3101968528615	1038.042425610419	-201.1383570753601	537.1669551137485	1052.057609328547	-392.0831488764417	539.6134174069059	1056.940882454119	-67.22187098781326	502.2264127243827	908.8017399079606	-403.3781374725694	597.0953340517357	699.7383674714611	-327.3410304562386	471.2354026489363	628.7910318288788	-375.4115557333044	430.148928315052	480.8565977335595	-348.0262083136208	452.0386923994791	382.3873825159117	-298.9754567559227	321.0808465657871	316.3893820706808	-345.2618906419562	322.976524120532	212.4501273190244	-280.7359713353383	211.136955857843	154.1473959365808	-308.5354744470475	337.7407153594519	57.18877160442545	-299.778091370044	297.8172330553207	34.69814528035148	-340.6581578855236	144.1376514385881	134.9462416522614	-259.521198642489	559.7819517546677	887.0560683806743	-50.206254238191	718.3332731964027	778.8427805786298	-145.1316720647064	682.6497324368436	670.3004636696504	-64.81753590747346	737.2784022031516	545.8831535156684	-96.50089451921373	720.0225496156114	444.7567596736833	-152.3548772477343	590.1227364207518	402.5361188595873	-87.32733744429231	552.7708938045398	312.4062198774262	-145.498431977456	440.9638489218556	275.6066177014165	-103.0428101787791	474.9582097618599	123.1245161868173	-126.2999036536333	438.9825107737191	136.1898292887083	-85.77819913878193	378.7210282552577	316.0661515022009	-146.9360575374777	
